# xmcd
#
# Track frame offsets:
# 150
# 6160
# 12978
# 19562
# 28481
# 40409
# 48231
# 55349
# 69796
# 76732
# 83101
# 90442
# 104042
# 114989
# 123510
# 130225
# 139493
# 146235
#
# Disc length: 2122 seconds
#
# Revision: 1
# Processed by: cddbd v1.5.2PL0 Copyright (c) Steve Scherf et al.
# Submitted via: CedeCatalogueitor 2.6.0.6 http://personales.ya.com/cdcatalogueitor
#
DISCID=f3084812
DTITLE=Sangrientos - Emergency Poncho
DYEAR=1900
DGENRE=
TTITLE0=Bin Laden Kids
TTITLE1=Boris Becker
TTITLE2=Llanos Sisters
TTITLE3=Evinrude
TTITLE4=Espongiforme
TTITLE5=Yucateco
TTITLE6=Drum Killer
TTITLE7=Ginger Bells
TTITLE8=Mary Con Son 
TTITLE9=Akumal Beach
TTITLE10=Arturito Lizarazu
TTITLE11=El Argentino
TTITLE12=Larry Lappin
TTITLE13=Zafira
TTITLE14=Atahualpa Yupanki
TTITLE15=El Platanito
TTITLE16=El Baron Samedi
TTITLE17=El Whishu
EXTD=
EXTT0=
EXTT1=
EXTT2=
EXTT3=
EXTT4=
EXTT5=
EXTT6=
EXTT7=
EXTT8=
EXTT9=
EXTT10=
EXTT11=
EXTT12=
EXTT13=
EXTT14=
EXTT15=
EXTT16=
EXTT17=
PLAYORDER=
